<?xml version="1.0" encoding="UTF-8" standalone="no"?>
<svg
   version="1.1"
   id="Layer_1"
   x="0px"
   y="0px"
   width="100%"
   viewBox="0 0 1024 1024"
   enable-background="new 0 0 1024 1024"
   xml:space="preserve"
   sodipodi:docname="logo.svg"
   inkscape:version="1.3.2 (091e20e, 2023-11-25, custom)"
   xmlns:inkscape="http://www.inkscape.org/namespaces/inkscape"
   xmlns:sodipodi="http://sodipodi.sourceforge.net/DTD/sodipodi-0.dtd"
   xmlns="http://www.w3.org/2000/svg"
   xmlns:svg="http://www.w3.org/2000/svg"><defs
   id="defs11" /><sodipodi:namedview
   id="namedview11"
   pagecolor="#ffffff"
   bordercolor="#000000"
   borderopacity="0.25"
   inkscape:showpageshadow="2"
   inkscape:pageopacity="0.0"
   inkscape:pagecheckerboard="0"
   inkscape:deskcolor="#d1d1d1"
   inkscape:zoom="0.84037984"
   inkscape:cx="477.76015"
   inkscape:cy="505.12873"
   inkscape:window-width="2560"
   inkscape:window-height="1494"
   inkscape:window-x="-11"
   inkscape:window-y="-11"
   inkscape:window-maximized="1"
   inkscape:current-layer="Layer_1" />
<path
   fill="#248286"
   opacity="1"
   stroke="none"
   d="m 845.22045,182.19683 c 0.46031,2.18614 1.31933,4.37153 1.32325,6.55844 0.11312,63.02899 0.14537,126.05812 0.1607,189.08724 4.2e-4,2.00029 -0.31617,4.0007 -0.61383,7.53004 -3.36566,-1.88362 -6.09952,-3.13434 -8.5301,-4.82185 -11.21089,-7.78353 -22.46645,-15.51393 -33.43788,-23.62601 -5.28553,-3.90799 -8.32001,-3.07295 -11.71589,2.49365 -49.59877,81.30481 -99.28648,162.55555 -149.09398,243.73271 -43.73529,71.28078 -87.65272,142.44975 -131.47194,213.67894 -4.69052,7.62462 -9.26339,15.32134 -14.75815,24.42067 -2.75463,-3.72564 -4.91233,-6.23121 -6.61984,-9.01316 C 430.92511,735.23522 371.39031,638.23091 311.94285,541.17321 274.63573,480.26328 237.41082,419.30276 200.27944,358.28556 190.9335,342.92764 182.08883,327.26469 173.6484,311.08109 c 20.89714,8.72036 41.33605,17.74828 61.30407,27.71904 5.31827,2.65552 10.40595,7.45191 13.54413,12.53447 31.71548,51.36576 62.95483,103.02522 94.42404,154.54342 41.14988,67.36636 82.38237,134.68219 123.5895,202.01363 9.50044,15.52332 19.04224,31.02135 29.16379,47.50626 3.26365,-4.49351 6.02795,-7.81981 8.27555,-11.46471 45.39716,-73.61872 90.94869,-147.14349 136.02929,-220.95582 53.25017,-87.18843 106.1762,-174.5754 159.03989,-261.999 15.75121,-26.0485 30.82019,-52.50951 46.20174,-78.78155 z"
   id="path2"
   style="stroke-width:1" />
<path
   fill="#96d3da"
   opacity="1"
   stroke="none"
   d="m 844.63578,182.36359 c -14.79688,26.10528 -29.86586,52.56629 -45.61706,78.61479 -52.8637,87.4236 -105.78973,174.81057 -159.0399,261.999 -45.08059,73.81233 -90.63213,147.3371 -136.02929,220.95582 -2.2476,3.6449 -5.0119,6.9712 -8.27554,11.46471 C 485.55243,738.913 476.01064,723.41497 466.51019,707.89165 425.30306,640.56021 384.07058,573.24438 342.92069,505.87802 311.45148,454.35982 280.21213,402.70036 248.49665,351.3346 c -3.13817,-5.08256 -8.22586,-9.87895 -13.54412,-12.53447 -19.96803,-9.97076 -40.40694,-18.99868 -61.27589,-28.31525 -2.02766,-6.93239 3.53078,-3.19318 5.34998,-3.21706 23.52175,-0.30925 47.15345,1.12674 70.54145,-0.6771 19.2791,-1.48699 29.61708,4.79244 39.88544,21.92131 65.61938,109.46114 132.8607,217.94993 199.55819,326.76485 2.38884,3.89724 4.6717,7.85949 7.81088,13.15179 74.5756,-121.89724 148.45196,-242.65165 223.07639,-364.62883 -18.5374,-8.46171 -35.76549,-16.32566 -54.45706,-24.8577 60.51563,-32.66584 119.56236,-64.53883 179.19387,-96.57855 z"
   id="path3"
   style="stroke-width:1" />
<path
   fill="#97d3db"
   opacity="1"
   stroke="none"
   d="m 494.43823,179.61781 c 1.45118,-0.47465 3.95336,-1.66675 4.19366,-1.31477 2.93195,4.29482 5.47337,8.85284 8.22662,13.27368 41.19705,66.14851 82.45635,132.2584 123.44226,198.53747 1.52995,2.47408 1.71825,7.26178 0.35019,9.79134 -6.46376,11.95163 -13.68754,23.4923 -21.33852,36.35293 -19.42088,-26.07472 -38.31977,-51.44866 -57.88398,-77.71573 -5.07477,8.18065 -9.89433,15.84418 -14.60953,23.57144 -12.22044,20.02686 -24.36812,40.0982 -36.64398,60.09097 -0.88244,1.43707 -2.56676,2.38173 -4.03098,2.32052 -0.15442,-86.6059 -0.14257,-171.97686 -0.22223,-257.34783 -0.002,-2.52046 -0.96731,-5.04004 -1.48351,-7.56002 z"
   id="path4"
   style="stroke-width:1" />
<path
   fill="#248487"
   opacity="1"
   stroke="none"
   d="m 493.87819,179.79031 c 1.07624,2.34748 2.04122,4.86706 2.04355,7.38752 0.0797,85.37097 0.0678,170.74193 -0.15633,256.88288 -10.35618,-15.06908 -20.55035,-30.86795 -30.59334,-46.7624 -6.04735,-9.57082 -11.81705,-19.3167 -17.80471,-28.92588 -1.62767,-2.61217 -3.59369,-5.01348 -6.49852,-9.021 -18.86533,25.87102 -36.89521,50.59641 -56.06771,76.88875 -4.42786,-7.17818 -8.32159,-13.34681 -12.07469,-19.5999 -15.96902,-26.60583 -15.98812,-16.55059 0.22381,-42.96702 38.87294,-63.3413 77.99647,-126.52883 117.05366,-189.75701 0.89428,-1.44781 2.20031,-2.64131 3.87421,-4.12594 z"
   id="path5"
   style="stroke-width:1" />
<path
   fill="#287e81"
   opacity="1"
   stroke="none"
   d="m 845.10779,735.92063 c -17.03055,-20.49482 -34.12511,-40.93687 -51.07736,-61.49624 -28.57567,-34.65627 -56.98838,-69.44712 -85.62542,-104.05249 -9.48169,-11.45795 -9.72785,-11.2937 -1.41284,-24.30189 3.39576,-5.31228 6.93599,-10.53214 11.4746,-17.40564 3.54098,4.82536 6.42484,8.22697 8.73362,11.98215 27.62495,44.92942 55.30809,89.82417 82.65954,134.91986 11.86631,19.5645 23.00401,39.57103 34.85562,59.85829 0.38298,0.48149 0.39224,0.49596 0.39224,0.49596 z"
   id="path6"
   style="stroke-width:1" />
<path
   fill="#287e81"
   opacity="1"
   stroke="none"
   d="m 189.42529,667.51306 c 28.42883,-46.429 56.52866,-92.31351 85.79868,-140.10888 6.44271,10.74666 12.13263,19.3816 16.72086,28.5668 0.99445,1.9908 -1.27758,6.51117 -3.21546,8.92781 -16.50847,20.58582 -33.24714,40.98781 -49.9945,61.3811 -27.41873,33.38783 -54.89459,66.72893 -82.35392,100.08342 -0.70848,0.86061 -1.50288,1.6506 -3.98255,1.38358 12.23267,-19.89642 24.46534,-39.79285 37.02689,-60.23383 z"
   id="path7"
   style="stroke-width:1" />

<path
   fill="#287e81"
   opacity="1"
   stroke="none"
   d="m 147.90994,735.90808 c 0.18601,-0.16175 0.39425,-0.3049 0.55169,-0.49095 0.16035,-0.18935 0.27085,-0.42107 0.40318,-0.63424 -0.22414,0.24115 -0.44833,0.48232 -0.80061,0.91891 -0.12829,0.19531 -0.15426,0.20628 -0.15426,0.20628 z"
   id="path9"
   style="stroke-width:1" />
<path
   fill="#287e81"
   opacity="1"
   stroke="none"
   d="m 147.93239,735.90137 c -0.004,0.004 -0.4104,0.21382 -0.4104,0.21382 0,0 0.49587,0.073 0.4419,-0.0671 -0.0539,-0.14013 -0.0279,-0.15112 -0.0315,-0.14675 z"
   id="path10"
   style="stroke-width:1" />
<path
   fill="#287e81"
   opacity="1"
   stroke="none"
   d="m 845.10641,735.91093 c 0.009,0.005 0.19021,0.40489 0.19021,0.40489 0,0 0.0913,-0.47998 -0.0488,-0.43765 -0.14013,0.0426 -0.14937,0.0281 -0.14153,0.0327 z"
   id="path11"
   style="stroke-width:1" />
</svg>
